<?xml version="1.0" encoding="utf-8"?>
<!-- Generator: Adobe Illustrator 18.0.0, SVG Export Plug-In . SVG Version: 6.00 Build 0)  -->
<!DOCTYPE svg PUBLIC "-//W3C//DTD SVG 1.1//EN" "http://www.w3.org/Graphics/SVG/1.1/DTD/svg11.dtd">
<svg version="1.1" id="Layer_1" xmlns="http://www.w3.org/2000/svg" xmlns:xlink="http://www.w3.org/1999/xlink" x="0px" y="0px"
	 viewBox="0 0 64 64" enable-background="new 0 0 64 64" xml:space="preserve">
<path d="M58,3H6C2.7,3,0,5.7,0,9v34c0,3.3,2.7,6,6,6h5v7.7c0,0.8,0.3,1.6,0.9,2.2c0.6,0.5,1.3,0.8,2.1,0.8c0.8,0,1.5-0.3,2-0.8
	L26.8,49H58c3.3,0,6-2.7,6-6V9C64,5.7,61.3,3,58,3z M60,43c0,1.1-0.9,2-2,2H25.2L15,54.4V45H6c-1.1,0-2-0.9-2-2V9c0-1.1,0.9-2,2-2
	h52c1.1,0,2,0.9,2,2V43z"/>
</svg>
