<svg width="64" height="64" xmlns="http://www.w3.org/2000/svg" xml:space="preserve" enable-background="new 0 0 64 64" version="1.1">

 <g>
  <title>Layer 1</title>
  <path id="svg_1" d="m50.65723,12.26987l-42.72718,0c-2.71153,0 -4.93006,2.40143 -4.93006,5.33652l0,30.24029c0,2.93509 2.21853,5.33652 4.93006,5.33652l4.10838,0l0,6.84854c0,0.71154 0.2465,1.42307 0.73951,1.95672c0.49301,0.44471 1.06818,0.71154 1.72552,0.71154c0.65734,0 1.23251,-0.26683 1.64335,-0.71154l8.87411,-8.80526l25.63631,0c2.71153,0 4.93006,-2.40143 4.93006,-5.33652l0,-30.24029c0,-2.93509 -2.21853,-5.33652 -4.93006,-5.33652zm1.64335,35.57681c0,0.97836 -0.73951,1.77884 -1.64335,1.77884l-26.95099,0l-8.3811,8.36055l0,-8.36055l-7.39509,0c-0.90384,0 -1.64335,-0.80048 -1.64335,-1.77884l0,-30.24029c0,-0.97836 0.73951,-1.77884 1.64335,-1.77884l42.72718,0c0.90384,0 1.64335,0.80048 1.64335,1.77884l0,30.24029z"/>
 </g>
</svg>